<?xml version="1.0" encoding="UTF-8" standalone="no"?>
<!-- Creator: CorelDRAW -->

<svg
   xmlns:dc="http://purl.org/dc/elements/1.1/"
   xmlns:cc="http://creativecommons.org/ns#"
   xmlns:rdf="http://www.w3.org/1999/02/22-rdf-syntax-ns#"
   xmlns:svg="http://www.w3.org/2000/svg"
   xmlns="http://www.w3.org/2000/svg"
   xmlns:sodipodi="http://sodipodi.sourceforge.net/DTD/sodipodi-0.dtd"
   xmlns:inkscape="http://www.inkscape.org/namespaces/inkscape"
   xml:space="preserve"
   width="8.0164804in"
   height="1.80417in"
   style="clip-rule:evenodd;fill-rule:evenodd;image-rendering:optimizeQuality;shape-rendering:geometricPrecision;text-rendering:geometricPrecision"
   viewBox="0 0 8.0164804 1.80417"
   id="svg2"
   version="1.1"
   inkscape:version="0.91 r13725"
   sodipodi:docname="homeq_dark.svg"><metadata
     id="metadata30"><rdf:RDF><cc:Work
         rdf:about=""><dc:format>image/svg+xml</dc:format><dc:type
           rdf:resource="http://purl.org/dc/dcmitype/StillImage" /><dc:title /></cc:Work></rdf:RDF></metadata><sodipodi:namedview
     pagecolor="#ffffff"
     bordercolor="#666666"
     borderopacity="1"
     objecttolerance="10"
     gridtolerance="10"
     guidetolerance="10"
     inkscape:pageopacity="0"
     inkscape:pageshadow="2"
     inkscape:window-width="2495"
     inkscape:window-height="1416"
     id="namedview28"
     showgrid="false"
     inkscape:zoom="1.7027703"
     inkscape:cx="375.5475"
     inkscape:cy="-29.888774"
     inkscape:window-x="65"
     inkscape:window-y="24"
     inkscape:window-maximized="1"
     inkscape:current-layer="svg2"
     fit-margin-top="0"
     fit-margin-left="0"
     fit-margin-right="0"
     fit-margin-bottom="0" /><defs
     id="defs4"><style
       type="text/css"
       id="style6"><![CDATA[
    .fil0 {fill:none}
    .fil3 {fill:#00CCFF}
    .fil2 {fill:#00CCFF;fill-rule:nonzero}
    .fil1 {fill:#F2F2F2;fill-rule:nonzero}
   ]]></style></defs><rect
     style="fill:none"
     y="-2.1532841"
     x="1.2028708"
     id="rect10"
     height="8.5"
     width="11"
     class="fil0" /><polygon
     transform="translate(-1.49176,-3.3479099)"
     style="clip-rule:evenodd;fill:#ffffff;fill-rule:nonzero;image-rendering:optimizeQuality;shape-rendering:geometricPrecision;text-rendering:geometricPrecision;fill-opacity:1"
     id="polygon12"
     points="1.49176,3.56337 1.75254,3.56337 1.75254,4.01874 1.49176,4.01874 "
     class="fil1" /><polygon
     transform="translate(-1.49176,-3.3479099)"
     style="clip-rule:evenodd;fill:#ffffff;fill-rule:nonzero;image-rendering:optimizeQuality;shape-rendering:geometricPrecision;text-rendering:geometricPrecision;fill-opacity:1"
     id="polygon14"
     points="2.69244,4.01874 2.43167,4.01874 2.43167,3.56337 2.69244,3.56337 "
     class="fil1" /><path
     style="clip-rule:evenodd;fill:#ffffff;fill-rule:nonzero;image-rendering:optimizeQuality;shape-rendering:geometricPrecision;text-rendering:geometricPrecision;fill-opacity:1"
     inkscape:connector-curvature="0"
     id="path16"
     d="m 2.14246,1.6149901 c -0.097555,0 -0.189484,-0.01876 -0.275783,-0.056284 C 1.7803817,1.5211871 1.705027,1.4702221 1.640614,1.4058126 1.5762084,1.3413996 1.525236,1.2660366 1.48772,1.1797456 1.4685743,1.1357216 1.4543224,1.0900726 1.4449483,1.0427926 l -0.244268,0 0,0.545933 -0.26077597,0 0,-0.545933 -0.160563,0 -0.518563,0 0,0.545933 -0.26077203,0 0,-0.78043697 0.26077203,0 0.518563,0 0.160563,0 0.26077597,0 0.038165,0 0.198583,0 c 0.00825,-0.06339 0.025012,-0.124358 0.050291,-0.182913 0.037516,-0.086929 0.088488,-0.162591 0.152894,-0.227008 0.064413,-0.064409 0.139768,-0.11537 0.226063,-0.152894 0.0863,-0.037524 0.1782287,-0.056284 0.2757837,-0.056284 0.098803,0 0.191358,0.01876 0.277654,0.056283 0.086299,0.037524 0.161657,0.088484 0.226067,0.152894 0.064413,0.064417 0.115378,0.140079 0.152902,0.227008 0.037524,0.086917 0.056276,0.179161 0.056276,0.276717 0,0.098803 -0.018752,0.19135797 -0.056276,0.27765397 -0.037524,0.086291 -0.088488,0.161654 -0.152902,0.226067 -0.064409,0.064409 -0.139768,0.115374 -0.226067,0.152894 -0.086295,0.037524 -0.17885,0.056283 -0.277654,0.056283 z m 0,-1.18003997 c -0.062531,0 -0.121004,0.012823 -0.175409,0.038457 -0.054405,0.025646 -0.101929,0.059728 -0.142579,0.102252 -0.04065,0.042516 -0.072858,0.092232 -0.096618,0.149146 -0.023768,0.056906 -0.035646,0.116 -0.035646,0.177287 0,0.062528 0.011878,0.12194097 0.035646,0.17821697 0.02376,0.056287 0.055968,0.106004 0.096618,0.149154 0.04065,0.04315 0.088173,0.077539 0.142579,0.103185 0.054406,0.025638 0.112878,0.038453 0.175409,0.038453 0.062535,0 0.121008,-0.012815 0.175409,-0.038453 0.054409,-0.025646 0.101933,-0.060035 0.142583,-0.103185 0.04065,-0.04315 0.072854,-0.092866 0.096618,-0.149154 0.023768,-0.056276 0.035642,-0.11568897 0.035642,-0.17821697 0,-0.061287 -0.011874,-0.120382 -0.035642,-0.177287 C 2.5333063,0.66789143 2.5011016,0.61817483 2.460452,0.57565883 2.4198024,0.53313523 2.3722788,0.49905253 2.317869,0.47340683 2.2634674,0.44777293 2.204995,0.43495013 2.14246,0.43495013 Z"
     class="fil1" /><polygon
     transform="translate(-1.49176,-3.3479099)"
     style="clip-rule:evenodd;fill:#ffffff;fill-rule:nonzero;image-rendering:optimizeQuality;shape-rendering:geometricPrecision;text-rendering:geometricPrecision;fill-opacity:1"
     id="polygon18"
     points="5.96239,4.93663 5.69975,4.93663 5.69975,4.24249 5.27013,4.7584 4.84239,4.24249 4.84239,4.93663 4.57975,4.93663 4.57975,3.56524 4.59663,3.56524 5.27013,4.35693 5.94552,3.56524 5.96239,3.56524 "
     class="fil1" /><polygon
     transform="translate(-1.49176,-3.3479099)"
     style="clip-rule:evenodd;fill:#ffffff;fill-rule:nonzero;image-rendering:optimizeQuality;shape-rendering:geometricPrecision;text-rendering:geometricPrecision;fill-opacity:1"
     id="polygon20"
     points="6.52522,4.13931 7.18933,4.13931 7.18933,4.37757 6.52522,4.37757 6.52522,4.70025 7.27376,4.70025 7.27376,4.93663 6.26444,4.93663 6.26444,3.56337 7.27376,3.56337 7.27376,3.796 6.52522,3.796 "
     class="fil1" /><path
     style="clip-rule:evenodd;fill:#ffffff;fill-opacity:1;fill-rule:nonzero;image-rendering:optimizeQuality;shape-rendering:geometricPrecision;text-rendering:geometricPrecision"
     inkscape:connector-curvature="0"
     id="path22"
     d="m 7.78198,1.3917401 0.2345,0.303295 -0.303917,0 -0.119126,-0.152898 c -0.098496,0.053465 -0.207933,0.080354 -0.328937,0.080354 -0.201992,0 -0.369898,-0.06972 -0.50372,-0.209181 -0.133823,-0.139449 -0.200736,-0.305787 -0.200736,-0.49871297 0,-0.128827 0.031264,-0.247327 0.093492,-0.355193 0.062221,-0.107567 0.147894,-0.19324 0.257016,-0.256717 0.108811,-0.063468 0.226067,-0.095362 0.351134,-0.095362 0.191358,0 0.355516,0.069098 0.492461,0.206988 0.137268,0.138205 0.205744,0.306421 0.205744,0.504665 0,0.18260197 -0.059409,0.34018497 -0.177909,0.47275997 z M 7.621886,1.1847521 c 0.054409,-0.080677 0.08161,-0.169787 0.08161,-0.26733897 0,-0.127882 -0.043153,-0.236071 -0.129449,-0.325492 -0.085984,-0.089118 -0.190102,-0.133516 -0.312362,-0.133516 -0.125697,0 -0.231063,0.04315 -0.315799,0.130071 -0.085051,0.086614 -0.127571,0.196984 -0.127571,0.330504 0,0.14914197 0.053468,0.26701997 0.160398,0.35363397 0.083795,0.06785 0.178543,0.101614 0.28485,0.101614 0.061287,0 0.118504,-0.011878 0.17228,-0.035642 l -0.24076,-0.310484 0.305795,0 0.121008,0.15665 z"
     class="fil2" /><path
     style="clip-rule:evenodd;fill:#ffffff;fill-opacity:1;fill-rule:evenodd;image-rendering:optimizeQuality;shape-rendering:geometricPrecision;text-rendering:geometricPrecision"
     inkscape:connector-curvature="0"
     id="path24"
     d="m 1.99089,0.74958013 0.129728,0 0,0.129728 -0.129728,0 0,-0.129728 z m 0.305008,0.30501197 -0.129728,0 0,-0.12972797 0.129728,0 0,0.12972797 z m -0.305008,0 0.129728,0 0,-0.12972797 -0.129728,0 0,0.12972797 z m 0.305008,-0.30501197 -0.129728,0 0,0.129728 0.129728,0 0,-0.129728 z"
     class="fil3" /><rect
     style="clip-rule:evenodd;fill:#ffffff;fill-opacity:1;fill-rule:evenodd;image-rendering:optimizeQuality;shape-rendering:geometricPrecision;text-rendering:geometricPrecision"
     id="rect26"
     height="1.80417"
     width="0.105521"
     y="0"
     x="6.1182604"
     class="fil3" /></svg>